<?xml version="1.0" standalone="no"?>
<!DOCTYPE svg PUBLIC "-//W3C//DTD SVG 20010904//EN"
 "http://www.w3.org/TR/2001/REC-SVG-20010904/DTD/svg10.dtd">
<svg version="1.0" xmlns="http://www.w3.org/2000/svg"
 width="3264.000000pt" height="3264.000000pt" viewBox="0 0 3264.000000 3264.000000"
 preserveAspectRatio="xMidYMid meet">

<g transform="translate(0.000000,3264.000000) scale(0.100000,-0.100000)"
fill="#000000" stroke="none">
<path d="M5200 25811 c-247 -16 -558 -185 -737 -400 -68 -82 -155 -234 -174
-305 -5 -17 -20 -65 -34 -106 -35 -98 -48 -248 -35 -395 23 -255 143 -513 320
-685 132 -129 315 -238 455 -271 22 -5 49 -14 60 -19 74 -34 97 -34 4590 -37
3908 -3 4426 -2 4550 12 77 8 158 21 180 29 22 7 65 22 95 32 54 17 166 72
225 110 95 60 226 186 307 294 38 50 138 251 138 277 0 12 7 37 15 55 9 18 24
95 33 171 17 132 17 143 0 278 -10 78 -25 154 -33 169 -8 16 -15 36 -15 45 0
22 -103 238 -130 273 -93 118 -136 163 -228 237 -77 61 -249 153 -345 184 -40
13 -88 31 -107 40 -32 15 -404 16 -4535 17 -2475 0 -4543 -2 -4595 -5z"/>
<path d="M18227 25795 c-15 -8 -45 -17 -65 -21 -20 -3 -96 -35 -168 -70 -174
-85 -284 -171 -397 -311 -59 -73 -151 -239 -167 -301 -23 -89 -39 -142 -52
-164 -11 -19 -14 -338 -16 -1750 -2 -1381 -5 -1728 -16 -1737 -8 -7 -547 -11
-1737 -14 l-1724 -3 -69 -22 c-147 -46 -160 -52 -271 -112 -119 -66 -239 -169
-329 -284 -70 -90 -166 -263 -166 -299 0 -13 -7 -32 -15 -43 -8 -10 -15 -29
-15 -42 0 -13 -6 -35 -14 -50 -7 -15 -16 -74 -20 -132 -4 -58 -8 -2809 -9
-6115 l-2 -6009 -25 -13 c-20 -10 -783 -13 -3833 -13 -2655 0 -3838 -3 -3905
-11 -94 -10 -227 -43 -247 -61 -5 -4 -16 -8 -26 -8 -51 0 -286 -147 -392 -247
-99 -92 -223 -288 -271 -428 -41 -118 -57 -218 -58 -355 -1 -466 277 -871 717
-1043 22 -9 56 -19 75 -23 19 -3 41 -11 49 -18 10 -8 2877 -12 11200 -14
l11186 -2 70 21 c157 47 322 126 387 184 18 17 53 46 78 66 56 45 165 172 201
236 49 85 109 212 109 231 0 10 9 43 20 75 18 50 20 82 20 282 0 200 -2 232
-20 282 -11 32 -20 66 -20 76 0 17 -82 181 -129 259 -45 72 -148 181 -241 254
-111 86 -207 136 -380 196 -146 50 172 48 -6283 48 -4122 0 -6014 3 -6028 10
-19 11 -19 58 -19 3259 0 2953 1 3249 16 3255 9 3 487 6 1063 6 801 0 1050 -3
1059 -12 9 -9 12 -386 13 -1627 1 -889 5 -1661 9 -1716 4 -55 17 -131 29 -170
11 -38 25 -88 30 -110 17 -69 131 -268 193 -336 13 -14 39 -43 58 -65 83 -91
259 -207 390 -256 36 -14 81 -30 100 -37 37 -14 116 -26 243 -37 91 -8 296 11
344 32 17 8 38 14 46 14 43 0 265 113 330 169 28 24 63 51 76 60 75 49 247
288 289 401 32 86 63 206 74 287 19 128 19 3596 0 3731 -28 211 -90 357 -231
545 -64 86 -218 224 -291 262 -39 20 -39 50 1 74 54 33 150 113 217 181 163
164 269 381 304 622 9 63 13 881 18 3413 l5 3329 25 13 c20 10 786 13 3850 13
2531 0 3855 4 3914 10 83 10 127 20 236 57 58 19 225 102 248 123 9 8 49 41
87 72 79 64 185 183 226 255 49 85 109 212 109 231 0 10 9 44 21 76 19 55 20
77 17 305 -3 211 -6 250 -21 276 -9 17 -17 40 -17 53 0 26 -87 212 -126 270
-54 80 -129 162 -204 224 -94 77 -81 69 -232 144 -97 49 -151 70 -196 79 -18
4 -45 13 -60 21 -41 21 -9204 21 -9245 -1z m-893 -6595 l26 -10 0 -1054 c0
-945 -2 -1056 -16 -1070 -14 -14 -124 -16 -1059 -16 -935 0 -1045 2 -1059 16
-14 14 -16 125 -16 1069 0 993 1 1055 18 1064 23 14 2070 15 2106 1z"/>
<path d="M9536 21443 c-4 -5 -998 -10 -2209 -13 -1989 -5 -2206 -7 -2247 -21
-25 -9 -78 -27 -119 -39 -87 -27 -238 -107 -300 -158 -24 -21 -61 -50 -82 -67
-100 -78 -248 -299 -299 -445 -52 -151 -61 -202 -61 -370 0 -145 2 -176 24
-255 33 -123 42 -146 96 -255 98 -201 262 -366 482 -481 109 -59 162 -75 349
-109 101 -19 166 -20 1733 -20 1645 0 1657 0 1679 -34 4 -6 8 -475 8 -1042 0
-1024 0 -1031 -20 -1057 l-21 -26 -1702 -4 -1702 -3 -90 -27 c-122 -35 -145
-44 -255 -101 -115 -59 -242 -163 -330 -269 -115 -140 -172 -255 -231 -467
-18 -63 -21 -102 -21 -240 1 -147 4 -175 27 -255 15 -49 33 -111 40 -137 20
-71 98 -210 159 -286 74 -93 111 -130 186 -188 133 -103 213 -147 325 -179 33
-10 76 -23 95 -30 106 -39 151 -40 1854 -43 1514 -2 1651 -4 1668 -19 17 -15
18 -64 18 -1052 0 -922 -2 -1039 -16 -1059 l-15 -22 -1587 0 c-1600 0 -1826
-5 -1926 -36 -158 -51 -201 -70 -316 -137 -66 -39 -199 -157 -261 -233 -136
-167 -233 -395 -249 -589 -15 -171 4 -338 51 -457 11 -26 19 -54 19 -63 0 -31
94 -198 151 -269 81 -101 115 -136 196 -199 116 -92 244 -157 393 -200 163
-47 139 -47 2525 -47 1999 0 2247 2 2324 16 47 9 100 20 116 26 17 5 41 12 55
15 14 3 43 13 65 23 22 9 58 25 80 34 166 71 330 198 437 338 54 71 128 232
128 278 0 11 6 37 14 57 7 21 22 74 32 118 18 78 19 209 19 4610 0 3726 -2
4536 -13 4565 -7 19 -17 55 -22 80 -5 25 -14 65 -20 90 -6 25 -16 65 -21 90
-39 175 -192 367 -391 488 -185 113 -450 182 -700 182 -63 0 -118 -3 -122 -7z"/>
<path d="M22644 21420 c-28 -4 -60 -12 -72 -19 -11 -6 -29 -11 -40 -11 -32 0
-204 -80 -294 -136 -65 -41 -182 -150 -243 -225 -33 -41 -63 -76 -66 -79 -4
-3 -19 -30 -34 -60 -15 -30 -38 -71 -50 -90 -12 -19 -32 -69 -44 -110 -12 -41
-30 -97 -39 -125 -16 -46 -17 -378 -17 -4620 0 -4304 1 -4573 17 -4625 10 -30
27 -88 39 -128 11 -39 31 -91 45 -115 13 -23 28 -53 34 -66 37 -85 199 -267
315 -354 58 -42 189 -117 231 -130 10 -3 51 -17 89 -32 68 -25 138 -39 260
-53 33 -4 1077 -4 2320 -1 2228 6 2369 8 2430 38 11 6 36 14 55 20 265 75 523
294 653 555 31 61 59 127 62 146 4 19 14 55 23 80 14 37 17 85 17 285 0 225
-1 244 -23 310 -37 108 -52 143 -110 242 -47 81 -201 273 -220 273 -4 0 -29
21 -57 45 -27 25 -72 57 -100 71 -27 15 -72 39 -100 54 -27 15 -72 34 -100 42
-27 9 -74 24 -104 33 -30 9 -98 21 -150 26 -53 4 -833 8 -1733 9 -1608 0
-1637 0 -1648 19 -16 30 -14 6483 2 6499 9 9 387 12 1638 12 1563 0 1629 1
1736 20 178 31 262 57 379 116 101 52 159 92 240 166 17 16 33 28 36 28 8 0
128 146 153 185 34 55 116 217 116 231 0 8 10 42 23 76 20 59 22 79 22 303 0
224 -2 244 -22 303 -13 34 -23 68 -23 76 0 14 -77 166 -118 231 -27 43 -134
169 -167 197 -11 9 -36 31 -55 48 -71 65 -225 153 -331 188 -35 12 -86 29
-114 39 -47 17 -169 18 -2430 19 -1309 1 -2403 -2 -2431 -6z"/>
</g>
</svg>
