<?xml version="1.0" standalone="no"?>
<!DOCTYPE svg PUBLIC "-//W3C//DTD SVG 20010904//EN"
 "http://www.w3.org/TR/2001/REC-SVG-20010904/DTD/svg10.dtd">
<svg version="1.0" xmlns="http://www.w3.org/2000/svg"
 width="3264.000000pt" height="466.000000pt" viewBox="0 0 3264.000000 466.000000"
 preserveAspectRatio="xMidYMid meet">

<g transform="translate(0.000000,466.000000) scale(0.100000,-0.100000)"
fill="#000000" stroke="none">
<path d="M14165 3896 c-40 -17 -77 -62 -94 -114 -19 -56 -3 -110 49 -166 l39
-41 763 0 763 0 32 24 c33 25 73 103 73 143 -1 58 -57 136 -113 157 -45 17
-1473 14 -1512 -3z"/>
<path d="M16228 3890 c-20 -11 -47 -36 -60 -57 -22 -37 -23 -45 -28 -328 l-5
-290 -285 -5 c-322 -6 -334 -8 -377 -86 l-23 -39 0 -981 0 -982 -22 -6 c-13
-3 -297 -6 -631 -6 -661 0 -634 2 -688 -57 -55 -59 -61 -143 -15 -213 50 -76
-116 -70 1884 -68 1790 3 1791 3 1819 24 36 26 73 98 73 143 0 55 -36 118 -84
146 l-43 25 -961 0 c-528 0 -967 3 -976 6 -14 5 -16 61 -16 525 l0 519 175 0
175 0 0 -277 c0 -249 2 -282 19 -319 46 -101 175 -129 261 -58 65 55 65 57 65
399 0 171 -3 322 -8 338 -4 15 -24 46 -44 68 l-36 40 22 15 c11 8 31 34 44 57
22 42 22 44 25 589 l3 547 628 3 627 3 43 28 c48 32 80 91 81 148 0 52 -39
120 -86 146 l-39 23 -740 -1 c-711 0 -741 -1 -777 -19z m-90 -1202 l-3 -173
-170 0 -170 0 -3 173 -2 172 175 0 175 0 -2 -172z"/>
<path d="M14165 3196 c-40 -17 -77 -62 -94 -114 -17 -51 -5 -104 35 -152 54
-63 62 -65 369 -70 l280 -5 3 -150 c1 -82 0 -160 -3 -172 l-5 -23 -276 0
c-301 0 -319 -3 -366 -58 -71 -85 -56 -187 38 -258 l37 -29 286 -5 286 -5 3
-150 c1 -82 0 -160 -3 -172 l-5 -23 -276 0 c-300 0 -320 -3 -365 -57 -39 -46
-55 -105 -40 -153 14 -47 52 -94 95 -118 28 -15 71 -17 416 -17 381 0 385 0
427 23 28 14 50 36 63 62 20 38 20 57 20 792 0 848 4 799 -76 845 -39 22 -43
23 -429 22 -302 0 -397 -3 -420 -13z"/>
<path d="M16928 3190 c-50 -27 -75 -62 -88 -124 -7 -36 -10 -276 -8 -762 3
-784 0 -740 68 -798 53 -44 86 -47 473 -44 352 3 363 4 403 25 60 32 84 76 84
154 0 58 -3 69 -32 103 -52 64 -64 66 -372 66 l-276 0 -5 23 c-3 12 -4 247 -3
522 l3 500 286 5 c281 5 286 5 321 29 56 39 79 81 79 144 0 81 -38 141 -104
166 -18 7 -163 11 -410 11 -358 -1 -384 -2 -419 -20z"/>
</g>
</svg>
